<?xml version="1.0" encoding="UTF-8" standalone="no"?>
<svg
   xmlns:dc="http://purl.org/dc/elements/1.1/"
   xmlns:cc="http://creativecommons.org/ns#"
   xmlns:rdf="http://www.w3.org/1999/02/22-rdf-syntax-ns#"
   xmlns:svg="http://www.w3.org/2000/svg"
   xmlns="http://www.w3.org/2000/svg"
   xmlns:sodipodi="http://sodipodi.sourceforge.net/DTD/sodipodi-0.dtd"
   xmlns:inkscape="http://www.inkscape.org/namespaces/inkscape"
   width="600"
   height="710"
   overflow="hidden"
   version="1.1"
   id="svg170"
   sodipodi:docname="assortativity_illustration.svg"
   inkscape:export-filename="C:\Users\nicho\Documents\GitHub\hypergraph-assortativity\Figures\assortativity_illustration.png"
   inkscape:export-xdpi="1000"
   inkscape:export-ydpi="1000"
   style="overflow:hidden"
   inkscape:version="0.92.4 (5da689c313, 2019-01-14)">
  <metadata
     id="metadata174">
    <rdf:RDF>
      <cc:Work
         rdf:about="">
        <dc:format>image/svg+xml</dc:format>
        <dc:type
           rdf:resource="http://purl.org/dc/dcmitype/StillImage" />
        <dc:title></dc:title>
      </cc:Work>
    </rdf:RDF>
  </metadata>
  <sodipodi:namedview
     pagecolor="#ffffff"
     bordercolor="#666666"
     borderopacity="1"
     objecttolerance="10"
     gridtolerance="10"
     guidetolerance="10"
     inkscape:pageopacity="0"
     inkscape:pageshadow="2"
     inkscape:window-width="1920"
     inkscape:window-height="986"
     id="namedview172"
     showgrid="false"
     inkscape:zoom="1"
     inkscape:cx="148.5"
     inkscape:cy="367.5"
     inkscape:window-x="-11"
     inkscape:window-y="-11"
     inkscape:window-maximized="1"
     inkscape:current-layer="svg170" />
  <defs
     id="defs14">
    <clipPath
       id="clip0">
      <rect
         x="1405"
         y="621"
         width="2377"
         height="2815"
         id="rect2" />
    </clipPath>
    <linearGradient
       x1="1753.5"
       y1="904"
       x2="3591.5"
       y2="904"
       gradientUnits="userSpaceOnUse"
       spreadMethod="reflect"
       id="fill1">
      <stop
         offset="0"
         stop-color="#D6DCE5"
         id="stop5" />
      <stop
         offset="0.33"
         stop-color="#ADB9CA"
         id="stop7" />
      <stop
         offset="0.67"
         stop-color="#8497B0"
         id="stop9" />
      <stop
         offset="1"
         stop-color="#44546A"
         id="stop11" />
    </linearGradient>
  </defs>
  <g
     clip-path="url(#clip0)"
     transform="matrix(0.25,0,0,0.25,-356.32288,-159.40725)"
     id="g168">
    <path
       d="m 3682.5,2518.5 -263,149.83 127.26,144.17 z"
       stroke-miterlimit="8"
       id="path16"
       inkscape:connector-curvature="0"
       style="fill:#bfbfbf;fill-opacity:0.50196078;fill-rule:evenodd;stroke:#7f7f7f;stroke-width:4.58333015;stroke-miterlimit:8" />
    <path
       d="m 3001.12,2407.5 -36.62,572 169,-286 z"
       stroke-miterlimit="8"
       id="path18"
       inkscape:connector-curvature="0"
       style="fill:#bfbfbf;fill-opacity:0.50196078;fill-rule:evenodd;stroke:#7f7f7f;stroke-width:4.58333015;stroke-miterlimit:8" />
    <path
       d="m 3131.5,2690.5 -413,149.83 246.1,144.17 z"
       stroke-miterlimit="8"
       id="path20"
       inkscape:connector-curvature="0"
       style="fill:#bfbfbf;fill-opacity:0.50196078;fill-rule:evenodd;stroke:#7f7f7f;stroke-width:4.58333015;stroke-miterlimit:8" />
    <path
       d="m 2327.92,2817.5 -178.42,198.55 388,113.45 z"
       stroke-miterlimit="8"
       id="path22"
       inkscape:connector-curvature="0"
       style="fill:#bfbfbf;fill-opacity:0.50196078;fill-rule:evenodd;stroke:#7f7f7f;stroke-width:4.58333015;stroke-miterlimit:8" />
    <path
       d="m 1592.5,2769.75 164.22,183.75 70.78,-294 z"
       stroke-miterlimit="8"
       id="path24"
       inkscape:connector-curvature="0"
       style="fill:#bfbfbf;fill-opacity:0.50196078;fill-rule:evenodd;stroke:#7f7f7f;stroke-width:4.58333015;stroke-miterlimit:8" />
    <path
       d="m 3546.9,2803.5 -147.4,183.94 343,82.06 z"
       stroke-miterlimit="8"
       id="path26"
       inkscape:connector-curvature="0"
       style="fill:#bfbfbf;fill-opacity:0.50196078;fill-rule:evenodd;stroke:#7f7f7f;stroke-width:4.58333015;stroke-miterlimit:8" />
    <path
       d="m 2556.39,2424.5 -84.89,214.99 249,198.01 z"
       stroke-miterlimit="8"
       id="path28"
       inkscape:connector-curvature="0"
       style="fill:#bfbfbf;fill-opacity:0.50196078;fill-rule:evenodd;stroke:#7f7f7f;stroke-width:4.58333015;stroke-miterlimit:8" />
    <path
       d="m 2018.5,2465.5 308.49,365 141.51,-189.57 z"
       stroke-miterlimit="8"
       id="path30"
       inkscape:connector-curvature="0"
       style="fill:#bfbfbf;fill-opacity:0.50196078;fill-rule:evenodd;stroke:#7f7f7f;stroke-width:4.58333015;stroke-miterlimit:8" />
    <path
       d="m 1547.5,3163.5 42.42,-402 466.58,42.46 z"
       stroke-miterlimit="8"
       id="path32"
       inkscape:connector-curvature="0"
       style="fill:#bfbfbf;fill-opacity:0.50196078;fill-rule:evenodd;stroke:#7f7f7f;stroke-width:4.58333015;stroke-miterlimit:8" />
    <path
       d="M 0,46.7473 C 0,20.9295 20.9142,0 46.7132,0 c 25.799,0 46.7132,20.9295 46.7132,46.7473 0,25.8178 -20.9142,46.7473 -46.7132,46.7473 C 20.9142,93.4946 0,72.5651 0,46.7473 Z"
       stroke-miterlimit="8"
       transform="matrix(-0.746535,-0.665346,-0.665346,0.746535,2618.26,2410.63)"
       id="path34"
       inkscape:connector-curvature="0"
       style="fill:#adb9ca;fill-rule:evenodd;stroke:#000000;stroke-width:4.58333015;stroke-miterlimit:8" />
    <path
       d="m 1992.42,2495.63 c -16.8,-19.6 -14.58,-49.07 4.96,-65.83 19.55,-16.76 49.01,-14.45 65.82,5.15 16.8,19.6 14.58,49.07 -4.96,65.83 -19.55,16.76 -49.01,14.45 -65.82,-5.15 z"
       stroke-miterlimit="8"
       id="path36"
       inkscape:connector-curvature="0"
       style="fill:#adb9ca;fill-rule:evenodd;stroke:#000000;stroke-width:4.58333015;stroke-miterlimit:8" />
    <path
       d="m 1775.5,2660 c 0,-25.68 20.82,-46.5 46.5,-46.5 25.68,0 46.5,20.82 46.5,46.5 0,25.68 -20.82,46.5 -46.5,46.5 -25.68,0 -46.5,-20.82 -46.5,-46.5 z"
       stroke-miterlimit="8"
       id="path38"
       inkscape:connector-curvature="0"
       style="fill:#d6dce5;fill-rule:evenodd;stroke:#000000;stroke-width:4.58333015;stroke-miterlimit:8" />
    <path
       d="m 2007.5,2799.5 c 0,-25.96 21.04,-47 47,-47 25.96,0 47,21.04 47,47 0,25.96 -21.04,47 -47,47 -25.96,0 -47,-21.04 -47,-47 z"
       stroke-miterlimit="8"
       id="path40"
       inkscape:connector-curvature="0"
       style="fill:#d6dce5;fill-rule:evenodd;stroke:#000000;stroke-width:4.58333015;stroke-miterlimit:8" />
    <path
       d="m 1706.5,2950 c 0,-25.68 21.04,-46.5 47,-46.5 25.96,0 47,20.82 47,46.5 0,25.68 -21.04,46.5 -47,46.5 -25.96,0 -47,-20.82 -47,-46.5 z"
       stroke-miterlimit="8"
       id="path42"
       inkscape:connector-curvature="0"
       style="fill:#d6dce5;fill-rule:evenodd;stroke:#000000;stroke-width:4.58333015;stroke-miterlimit:8" />
    <path
       d="m 2421.5,2640.5 c 0,-25.96 21.04,-47 47,-47 25.96,0 47,21.04 47,47 0,25.96 -21.04,47 -47,47 -25.96,0 -47,-21.04 -47,-47 z"
       stroke-miterlimit="8"
       id="path44"
       inkscape:connector-curvature="0"
       style="fill:#adb9ca;fill-rule:evenodd;stroke:#000000;stroke-width:4.58333015;stroke-miterlimit:8" />
    <path
       d="m 1869.5,3077.5 c 0,-25.96 20.82,-47 46.5,-47 25.68,0 46.5,21.04 46.5,47 0,25.96 -20.82,47 -46.5,47 -25.68,0 -46.5,-21.04 -46.5,-47 z"
       stroke-miterlimit="8"
       id="path46"
       inkscape:connector-curvature="0"
       style="fill:#d6dce5;fill-rule:evenodd;stroke:#000000;stroke-width:4.58333015;stroke-miterlimit:8" />
    <path
       d="m 1501.5,3159 c 0,-25.68 20.82,-46.5 46.5,-46.5 25.68,0 46.5,20.82 46.5,46.5 0,25.68 -20.82,46.5 -46.5,46.5 -25.68,0 -46.5,-20.82 -46.5,-46.5 z"
       stroke-miterlimit="8"
       id="path48"
       inkscape:connector-curvature="0"
       style="fill:#d6dce5;fill-rule:evenodd;stroke:#000000;stroke-width:4.58333015;stroke-miterlimit:8" />
    <path
       d="m 2276.5,2816.5 c 0,-25.96 20.82,-47 46.5,-47 25.68,0 46.5,21.04 46.5,47 0,25.96 -20.82,47 -46.5,47 -25.68,0 -46.5,-21.04 -46.5,-47 z"
       stroke-miterlimit="8"
       id="path50"
       inkscape:connector-curvature="0"
       style="fill:#adb9ca;fill-rule:evenodd;stroke:#000000;stroke-width:4.58333015;stroke-miterlimit:8" />
    <path
       d="m 2111.5,3013.5 c 0,-25.96 21.04,-47 47,-47 25.96,0 47,21.04 47,47 0,25.96 -21.04,47 -47,47 -25.96,0 -47,-21.04 -47,-47 z"
       stroke-miterlimit="8"
       id="path52"
       inkscape:connector-curvature="0"
       style="fill:#d6dce5;fill-rule:evenodd;stroke:#000000;stroke-width:4.58333015;stroke-miterlimit:8" />
    <path
       d="m 1572.09,2807.61 c -22.32,-12.84 -29.97,-41.39 -17.09,-63.77 12.88,-22.37 41.4,-30.1 63.72,-17.26 22.31,12.84 29.96,41.39 17.09,63.76 -12.88,22.38 -41.41,30.11 -63.72,17.27 z"
       stroke-miterlimit="8"
       id="path54"
       inkscape:connector-curvature="0"
       style="fill:#d6dce5;fill-rule:evenodd;stroke:#000000;stroke-width:4.58333015;stroke-miterlimit:8" />
    <path
       d="M 0,46.7473 C 0,20.9295 20.9142,0 46.7132,0 c 25.799,0 46.7132,20.9295 46.7132,46.7473 0,25.8178 -20.9142,46.7473 -46.7132,46.7473 C 20.9142,93.4946 0,72.5651 0,46.7473 Z"
       stroke-miterlimit="8"
       transform="matrix(-0.746535,-0.665346,-0.665346,0.746535,3748.14,2513.78)"
       id="path56"
       inkscape:connector-curvature="0"
       style="fill:#44546a;fill-rule:evenodd;stroke:#000000;stroke-width:4.58333015;stroke-miterlimit:8" />
    <path
       d="m 2967.21,2444.93 c -16.81,-19.6 -14.59,-49.07 4.95,-65.83 19.55,-16.75 49.02,-14.45 65.82,5.15 16.81,19.6 14.59,49.07 -4.96,65.83 -19.54,16.76 -49.01,14.45 -65.81,-5.15 z"
       stroke-miterlimit="8"
       id="path58"
       inkscape:connector-curvature="0"
       style="fill:#8497b0;fill-rule:evenodd;stroke:#000000;stroke-width:4.58333015;stroke-miterlimit:8" />
    <path
       d="m 3076.5,2693 c 0,-25.68 21.04,-46.5 47,-46.5 25.96,0 47,20.82 47,46.5 0,25.68 -21.04,46.5 -47,46.5 -25.96,0 -47,-20.82 -47,-46.5 z"
       stroke-miterlimit="8"
       id="path60"
       inkscape:connector-curvature="0"
       style="fill:#8497b0;fill-rule:evenodd;stroke:#000000;stroke-width:4.58333015;stroke-miterlimit:8" />
    <path
       d="m 3498.5,2806.5 c 0,-25.96 20.82,-47 46.5,-47 25.68,0 46.5,21.04 46.5,47 0,25.96 -20.82,47 -46.5,47 -25.68,0 -46.5,-21.04 -46.5,-47 z"
       stroke-miterlimit="8"
       id="path62"
       inkscape:connector-curvature="0"
       style="fill:#44546a;fill-rule:evenodd;stroke:#000000;stroke-width:4.58333015;stroke-miterlimit:8" />
    <path
       d="m 2920.5,2984 c 0,-25.68 20.82,-46.5 46.5,-46.5 25.68,0 46.5,20.82 46.5,46.5 0,25.68 -20.82,46.5 -46.5,46.5 -25.68,0 -46.5,-20.82 -46.5,-46.5 z"
       stroke-miterlimit="8"
       id="path64"
       inkscape:connector-curvature="0"
       style="fill:#8497b0;fill-rule:evenodd;stroke:#000000;stroke-width:4.58333015;stroke-miterlimit:8" />
    <path
       d="m 3372.5,2660 c 0,-25.68 20.82,-46.5 46.5,-46.5 25.68,0 46.5,20.82 46.5,46.5 0,25.68 -20.82,46.5 -46.5,46.5 -25.68,0 -46.5,-20.82 -46.5,-46.5 z"
       stroke-miterlimit="8"
       id="path66"
       inkscape:connector-curvature="0"
       style="fill:#44546a;fill-rule:evenodd;stroke:#000000;stroke-width:4.58333015;stroke-miterlimit:8" />
    <path
       d="m 3166.5,3171 c 0,-25.68 20.82,-46.5 46.5,-46.5 25.68,0 46.5,20.82 46.5,46.5 0,25.68 -20.82,46.5 -46.5,46.5 -25.68,0 -46.5,-20.82 -46.5,-46.5 z"
       stroke-miterlimit="8"
       id="path68"
       inkscape:connector-curvature="0"
       style="fill:#8497b0;fill-rule:evenodd;stroke:#000000;stroke-width:4.58333015;stroke-miterlimit:8" />
    <path
       d="m 2485.5,3126.5 c 0,-25.96 20.82,-47 46.5,-47 25.68,0 46.5,21.04 46.5,47 0,25.96 -20.82,47 -46.5,47 -25.68,0 -46.5,-21.04 -46.5,-47 z"
       stroke-miterlimit="8"
       id="path70"
       inkscape:connector-curvature="0"
       style="fill:#adb9ca;fill-rule:evenodd;stroke:#000000;stroke-width:4.58333015;stroke-miterlimit:8" />
    <path
       d="m 3686.5,3060.5 c 0,-25.96 20.82,-47 46.5,-47 25.68,0 46.5,21.04 46.5,47 0,25.96 -20.82,47 -46.5,47 -25.68,0 -46.5,-21.04 -46.5,-47 z"
       stroke-miterlimit="8"
       id="path72"
       inkscape:connector-curvature="0"
       style="fill:#44546a;fill-rule:evenodd;stroke:#000000;stroke-width:4.58333015;stroke-miterlimit:8" />
    <path
       d="m 3359.5,2984.5 c 0,-25.96 20.82,-47 46.5,-47 25.68,0 46.5,21.04 46.5,47 0,25.96 -20.82,47 -46.5,47 -25.68,0 -46.5,-21.04 -46.5,-47 z"
       stroke-miterlimit="8"
       id="path74"
       inkscape:connector-curvature="0"
       style="fill:#44546a;fill-rule:evenodd;stroke:#000000;stroke-width:4.58333015;stroke-miterlimit:8" />
    <path
       d="m 2691.82,2878.84 c -22.31,-12.85 -29.96,-41.39 -17.08,-63.77 12.87,-22.38 41.4,-30.11 63.72,-17.27 22.31,12.84 29.96,41.39 17.08,63.77 -12.87,22.38 -41.4,30.11 -63.72,17.27 z"
       stroke-miterlimit="8"
       id="path76"
       inkscape:connector-curvature="0"
       style="fill:#8497b0;fill-rule:evenodd;stroke:#000000;stroke-width:4.58333015;stroke-miterlimit:8" />
    <path
       d="m 2489.88,3320.81 c -1.82,0 -3.55,0.32 -5.2,0.97 -1.65,0.65 -3.38,1.75 -5.17,3.3 -1.79,1.56 -3.5,3.65 -5.13,6.28 -1.63,2.63 -3.09,5.73 -4.38,9.3 -1.29,3.56 -2.54,8.12 -3.73,13.67 l -2.51,11.56 c -0.1,0.52 -0.21,1.28 -0.33,2.26 -0.12,0.98 -0.18,1.88 -0.18,2.69 0,3.06 1.26,5.42 3.77,7.07 2.51,1.65 5.85,2.48 10.01,2.48 4.93,0 9.3,-2 13.1,-6 3.81,-3.99 6.76,-9.5 8.87,-16.51 2.1,-7.01 3.16,-13.98 3.16,-20.92 0,-3.11 -0.33,-5.83 -0.97,-8.15 -0.65,-2.32 -1.88,-4.23 -3.7,-5.74 -1.82,-1.51 -4.35,-2.26 -7.61,-2.26 z m 1.87,-5.67 c 4.64,0 8.73,0.95 12.27,2.84 3.54,1.89 6.22,4.62 8.04,8.21 1.82,3.59 2.73,8 2.73,13.21 0,8.14 -1.59,15.85 -4.77,23.15 -3.19,7.3 -7.61,13.04 -13.28,17.23 -5.67,4.18 -12.03,6.28 -19.06,6.28 -3.25,0 -6.34,-0.29 -9.26,-0.87 -2.92,-0.57 -5.84,-1.55 -8.76,-2.94 l -7.46,33.67 h -11.77 l 14.57,-64.96 c 1.72,-7.66 4.19,-14.07 7.39,-19.24 3.21,-5.17 7.27,-9.22 12.2,-12.17 4.93,-2.94 10.65,-4.41 17.16,-4.41 z"
       id="path78"
       inkscape:connector-curvature="0"
       style="fill-rule:evenodd" />
    <text
       font-size="100.775"
       x="2440.4299"
       y="3403.3201"
       id="text80"
       style="font-size:100.77500153px;font-family:Arial, Arial_MSFontService, sans-serif;fill:#000000;fill-opacity:0">𝜌</text>
    <path
       d="m 2575.65,3298.34 88.72,39.55 v 10.05 l -88.72,39.55 v -10.76 l 77.95,-33.81 -77.95,-33.81 z"
       id="path82"
       inkscape:connector-curvature="0"
       style="fill-rule:evenodd" />
    <text
       font-size="89.1475"
       x="2575.6499"
       y="3376.3501"
       id="text84"
       style="font-size:89.14749908px;font-family:Arial, Arial_MSFontService, sans-serif;fill:#000000;fill-opacity:0">&gt;</text>
    <path
       d="m 2756.4,3291.88 c -3.3,0 -6.06,0.99 -8.29,2.95 -2.22,1.96 -4.02,4.78 -5.38,8.47 -1.37,3.68 -2.34,8.17 -2.91,13.46 -0.57,5.28 -0.86,11.25 -0.86,17.9 0,15.6 1.45,27.05 4.34,34.35 2.9,7.3 7.38,10.95 13.46,10.95 5.79,0 10.08,-3.44 12.88,-10.3 2.8,-6.87 4.2,-17.51 4.2,-31.91 0,-11.01 -0.72,-19.92 -2.15,-26.74 -1.44,-6.82 -3.43,-11.71 -5.99,-14.68 -2.56,-2.96 -5.66,-4.45 -9.3,-4.45 z m 0.36,-6.1 c 10.48,0 18.28,4.05 23.4,12.13 5.12,8.09 7.68,20.32 7.68,36.68 0,16.94 -2.74,29.75 -8.22,38.44 -5.48,8.68 -13.48,13.03 -24.01,13.03 -10.33,0 -18.03,-4.07 -23.08,-12.21 -5.04,-8.13 -7.57,-20.48 -7.57,-37.03 0,-8.81 0.78,-16.42 2.33,-22.83 1.56,-6.41 3.74,-11.71 6.54,-15.9 2.8,-4.18 6.16,-7.28 10.08,-9.29 3.93,-2.01 8.21,-3.02 12.85,-3.02 z"
       id="path86"
       inkscape:connector-curvature="0"
       style="fill-rule:evenodd" />
    <text
       font-size="100.273"
       x="2724.96"
       y="3373.52"
       id="text88"
       style="font-size:100.27300262px;font-family:Arial, Arial_MSFontService, sans-serif;fill:#000000;fill-opacity:0">0</text>
    <path
       d="M 1753.5,859.749 H 3503 V 815.5 l 88.5,88.501 L 3503,992.5 V 948.25 H 1753.5 Z"
       stroke-miterlimit="8"
       id="path90"
       style="fill:url(#fill1);fill-rule:evenodd;stroke:#2f528f;stroke-width:4.58333015;stroke-miterlimit:8"
       inkscape:connector-curvature="0" />
    <text
       font-weight="400"
       font-size="110"
       transform="translate(2410.31,762)"
       id="text92"
       style="font-weight:400;font-size:110px;font-family:Arial, Arial_MSFontService, sans-serif">Higher Degree</text>
    <path
       d="m 2524.5,1836.5 439.41,-146 769.59,74.24 z"
       stroke-miterlimit="8"
       id="path94"
       inkscape:connector-curvature="0"
       style="fill:#bfbfbf;fill-opacity:0.50196078;fill-rule:evenodd;stroke:#7f7f7f;stroke-width:4.58333015;stroke-miterlimit:8" />
    <path
       d="m 2024.5,1170.5 1397.64,195 264.36,-149.12 z"
       stroke-miterlimit="8"
       id="path96"
       inkscape:connector-curvature="0"
       style="fill:#bfbfbf;fill-opacity:0.50196078;fill-rule:evenodd;stroke:#7f7f7f;stroke-width:4.58333015;stroke-miterlimit:8" />
    <path
       d="m 2548.5,1122.5 995,390 -126.09,-149.12 z"
       stroke-miterlimit="8"
       id="path98"
       inkscape:connector-curvature="0"
       style="fill:#bfbfbf;fill-opacity:0.50196078;fill-rule:evenodd;stroke:#7f7f7f;stroke-width:4.58333015;stroke-miterlimit:8" />
    <path
       d="m 1753.5,1656.4 1650,32.1 -1349.79,-188 z"
       stroke-miterlimit="8"
       id="path100"
       inkscape:connector-curvature="0"
       style="fill:#bfbfbf;fill-opacity:0.50196078;fill-rule:evenodd;stroke:#7f7f7f;stroke-width:4.58333015;stroke-miterlimit:8" />
    <path
       d="m 1595.5,1477.5 1529,-82.08 -1304.35,-31.92 z"
       stroke-miterlimit="8"
       id="path102"
       inkscape:connector-curvature="0"
       style="fill:#bfbfbf;fill-opacity:0.50196078;fill-rule:evenodd;stroke:#7f7f7f;stroke-width:4.58333015;stroke-miterlimit:8" />
    <path
       d="m 1549.5,1865.24 1657,9.26 -678.38,-44 z"
       stroke-miterlimit="8"
       id="path104"
       inkscape:connector-curvature="0"
       style="fill:#bfbfbf;fill-opacity:0.50196078;fill-rule:evenodd;stroke:#7f7f7f;stroke-width:4.58333015;stroke-miterlimit:8" />
    <path
       d="m 2468.5,1344.5 937.12,342 133.88,-176.98 z"
       stroke-miterlimit="8"
       id="path106"
       inkscape:connector-curvature="0"
       style="fill:#bfbfbf;fill-opacity:0.50196078;fill-rule:evenodd;stroke:#7f7f7f;stroke-width:4.58333015;stroke-miterlimit:8" />
    <path
       d="M 0,46.7473 C 0,20.9295 20.9142,0 46.7132,0 c 25.799,0 46.7132,20.9295 46.7132,46.7473 0,25.8178 -20.9142,46.7473 -46.7132,46.7473 C 20.9142,93.4946 0,72.5651 0,46.7473 Z"
       stroke-miterlimit="8"
       transform="matrix(-0.746535,-0.665346,-0.665346,0.746535,2618.26,1116.49)"
       id="path108"
       inkscape:connector-curvature="0"
       style="fill:#adb9ca;fill-rule:evenodd;stroke:#000000;stroke-width:4.58333015;stroke-miterlimit:8" />
    <path
       d="m 1992.42,1201.5 c -16.8,-19.6 -14.58,-49.08 4.96,-65.83 19.55,-16.76 49.01,-14.46 65.82,5.14 16.8,19.6 14.58,49.08 -4.96,65.83 -19.55,16.76 -49.01,14.46 -65.82,-5.14 z"
       stroke-miterlimit="8"
       id="path110"
       inkscape:connector-curvature="0"
       style="fill:#adb9ca;fill-rule:evenodd;stroke:#000000;stroke-width:4.58333015;stroke-miterlimit:8" />
    <path
       d="m 1775.5,1365.5 c 0,-25.96 20.82,-47 46.5,-47 25.68,0 46.5,21.04 46.5,47 0,25.96 -20.82,47 -46.5,47 -25.68,0 -46.5,-21.04 -46.5,-47 z"
       stroke-miterlimit="8"
       id="path112"
       inkscape:connector-curvature="0"
       style="fill:#d6dce5;fill-rule:evenodd;stroke:#000000;stroke-width:4.58333015;stroke-miterlimit:8" />
    <path
       d="m 2007.5,1505.5 c 0,-25.96 21.04,-47 47,-47 25.96,0 47,21.04 47,47 0,25.96 -21.04,47 -47,47 -25.96,0 -47,-21.04 -47,-47 z"
       stroke-miterlimit="8"
       id="path114"
       inkscape:connector-curvature="0"
       style="fill:#d6dce5;fill-rule:evenodd;stroke:#000000;stroke-width:4.58333015;stroke-miterlimit:8" />
    <path
       d="m 1706.5,1655.5 c 0,-25.96 21.04,-47 47,-47 25.96,0 47,21.04 47,47 0,25.96 -21.04,47 -47,47 -25.96,0 -47,-21.04 -47,-47 z"
       stroke-miterlimit="8"
       id="path116"
       inkscape:connector-curvature="0"
       style="fill:#d6dce5;fill-rule:evenodd;stroke:#000000;stroke-width:4.58333015;stroke-miterlimit:8" />
    <path
       d="m 2421.5,1346.5 c 0,-25.96 21.04,-47 47,-47 25.96,0 47,21.04 47,47 0,25.96 -21.04,47 -47,47 -25.96,0 -47,-21.04 -47,-47 z"
       stroke-miterlimit="8"
       id="path118"
       inkscape:connector-curvature="0"
       style="fill:#adb9ca;fill-rule:evenodd;stroke:#000000;stroke-width:4.58333015;stroke-miterlimit:8" />
    <path
       d="m 1869.5,1783 c 0,-25.68 20.82,-46.5 46.5,-46.5 25.68,0 46.5,20.82 46.5,46.5 0,25.68 -20.82,46.5 -46.5,46.5 -25.68,0 -46.5,-20.82 -46.5,-46.5 z"
       stroke-miterlimit="8"
       id="path120"
       inkscape:connector-curvature="0"
       style="fill:#d6dce5;fill-rule:evenodd;stroke:#000000;stroke-width:4.58333015;stroke-miterlimit:8" />
    <path
       d="m 1501.5,1864.5 c 0,-25.96 20.82,-47 46.5,-47 25.68,0 46.5,21.04 46.5,47 0,25.96 -20.82,47 -46.5,47 -25.68,0 -46.5,-21.04 -46.5,-47 z"
       stroke-miterlimit="8"
       id="path122"
       inkscape:connector-curvature="0"
       style="fill:#d6dce5;fill-rule:evenodd;stroke:#000000;stroke-width:4.58333015;stroke-miterlimit:8" />
    <path
       d="m 2276.5,1522.5 c 0,-25.96 20.82,-47 46.5,-47 25.68,0 46.5,21.04 46.5,47 0,25.96 -20.82,47 -46.5,47 -25.68,0 -46.5,-21.04 -46.5,-47 z"
       stroke-miterlimit="8"
       id="path124"
       inkscape:connector-curvature="0"
       style="fill:#adb9ca;fill-rule:evenodd;stroke:#000000;stroke-width:4.58333015;stroke-miterlimit:8" />
    <path
       d="m 2111.5,1719.5 c 0,-25.96 21.04,-47 47,-47 25.96,0 47,21.04 47,47 0,25.96 -21.04,47 -47,47 -25.96,0 -47,-21.04 -47,-47 z"
       stroke-miterlimit="8"
       id="path126"
       inkscape:connector-curvature="0"
       style="fill:#d6dce5;fill-rule:evenodd;stroke:#000000;stroke-width:4.58333015;stroke-miterlimit:8" />
    <path
       d="m 1572.09,1513.48 c -22.32,-12.85 -29.97,-41.4 -17.09,-63.77 12.88,-22.38 41.4,-30.11 63.72,-17.27 22.31,12.84 29.96,41.39 17.09,63.77 -12.88,22.38 -41.41,30.11 -63.72,17.27 z"
       stroke-miterlimit="8"
       id="path128"
       inkscape:connector-curvature="0"
       style="fill:#d6dce5;fill-rule:evenodd;stroke:#000000;stroke-width:4.58333015;stroke-miterlimit:8" />
    <path
       d="M 0,46.7473 C 0,20.9295 20.9142,0 46.7132,0 c 25.799,0 46.7132,20.9295 46.7132,46.7473 0,25.8178 -20.9142,46.7473 -46.7132,46.7473 C 20.9142,93.4946 0,72.5651 0,46.7473 Z"
       stroke-miterlimit="8"
       transform="matrix(-0.746535,-0.665346,-0.665346,0.746535,3748.14,1219.64)"
       id="path130"
       inkscape:connector-curvature="0"
       style="fill:#44546a;fill-rule:evenodd;stroke:#000000;stroke-width:4.58333015;stroke-miterlimit:8" />
    <path
       d="m 2967.21,1150.8 c -16.81,-19.6 -14.59,-49.07 4.95,-65.83 19.55,-16.76 49.02,-14.46 65.82,5.14 16.81,19.6 14.59,49.08 -4.96,65.83 -19.54,16.76 -49.01,14.46 -65.81,-5.14 z"
       stroke-miterlimit="8"
       id="path132"
       inkscape:connector-curvature="0"
       style="fill:#8497b0;fill-rule:evenodd;stroke:#000000;stroke-width:4.58333015;stroke-miterlimit:8" />
    <path
       d="m 3076.5,1399 c 0,-25.68 21.04,-46.5 47,-46.5 25.96,0 47,20.82 47,46.5 0,25.68 -21.04,46.5 -47,46.5 -25.96,0 -47,-20.82 -47,-46.5 z"
       stroke-miterlimit="8"
       id="path134"
       inkscape:connector-curvature="0"
       style="fill:#8497b0;fill-rule:evenodd;stroke:#000000;stroke-width:4.58333015;stroke-miterlimit:8" />
    <path
       d="m 3498.5,1512.5 c 0,-25.96 20.82,-47 46.5,-47 25.68,0 46.5,21.04 46.5,47 0,25.96 -20.82,47 -46.5,47 -25.68,0 -46.5,-21.04 -46.5,-47 z"
       stroke-miterlimit="8"
       id="path136"
       inkscape:connector-curvature="0"
       style="fill:#44546a;fill-rule:evenodd;stroke:#000000;stroke-width:4.58333015;stroke-miterlimit:8" />
    <path
       d="m 2920.5,1689.5 c 0,-25.96 20.82,-47 46.5,-47 25.68,0 46.5,21.04 46.5,47 0,25.96 -20.82,47 -46.5,47 -25.68,0 -46.5,-21.04 -46.5,-47 z"
       stroke-miterlimit="8"
       id="path138"
       inkscape:connector-curvature="0"
       style="fill:#8497b0;fill-rule:evenodd;stroke:#000000;stroke-width:4.58333015;stroke-miterlimit:8" />
    <path
       d="m 3372.5,1365.5 c 0,-25.96 20.82,-47 46.5,-47 25.68,0 46.5,21.04 46.5,47 0,25.96 -20.82,47 -46.5,47 -25.68,0 -46.5,-21.04 -46.5,-47 z"
       stroke-miterlimit="8"
       id="path140"
       inkscape:connector-curvature="0"
       style="fill:#44546a;fill-rule:evenodd;stroke:#000000;stroke-width:4.58333015;stroke-miterlimit:8" />
    <path
       d="m 3166.5,1876.5 c 0,-25.96 20.82,-47 46.5,-47 25.68,0 46.5,21.04 46.5,47 0,25.96 -20.82,47 -46.5,47 -25.68,0 -46.5,-21.04 -46.5,-47 z"
       stroke-miterlimit="8"
       id="path142"
       inkscape:connector-curvature="0"
       style="fill:#8497b0;fill-rule:evenodd;stroke:#000000;stroke-width:4.58333015;stroke-miterlimit:8" />
    <path
       d="m 2485.5,1832.5 c 0,-25.96 20.82,-47 46.5,-47 25.68,0 46.5,21.04 46.5,47 0,25.96 -20.82,47 -46.5,47 -25.68,0 -46.5,-21.04 -46.5,-47 z"
       stroke-miterlimit="8"
       id="path144"
       inkscape:connector-curvature="0"
       style="fill:#adb9ca;fill-rule:evenodd;stroke:#000000;stroke-width:4.58333015;stroke-miterlimit:8" />
    <path
       d="m 3686.5,1766.5 c 0,-25.96 20.82,-47 46.5,-47 25.68,0 46.5,21.04 46.5,47 0,25.96 -20.82,47 -46.5,47 -25.68,0 -46.5,-21.04 -46.5,-47 z"
       stroke-miterlimit="8"
       id="path146"
       inkscape:connector-curvature="0"
       style="fill:#44546a;fill-rule:evenodd;stroke:#000000;stroke-width:4.58333015;stroke-miterlimit:8" />
    <path
       d="m 3359.5,1690 c 0,-25.68 20.82,-46.5 46.5,-46.5 25.68,0 46.5,20.82 46.5,46.5 0,25.68 -20.82,46.5 -46.5,46.5 -25.68,0 -46.5,-20.82 -46.5,-46.5 z"
       stroke-miterlimit="8"
       id="path148"
       inkscape:connector-curvature="0"
       style="fill:#44546a;fill-rule:evenodd;stroke:#000000;stroke-width:4.58333015;stroke-miterlimit:8" />
    <path
       d="m 2691.82,1584.7 c -22.31,-12.84 -29.96,-41.39 -17.08,-63.77 12.87,-22.38 41.4,-30.11 63.72,-17.27 22.31,12.85 29.96,41.39 17.08,63.77 -12.87,22.38 -41.4,30.11 -63.72,17.27 z"
       stroke-miterlimit="8"
       id="path150"
       inkscape:connector-curvature="0"
       style="fill:#8497b0;fill-rule:evenodd;stroke:#000000;stroke-width:4.58333015;stroke-miterlimit:8" />
    <path
       d="m 2489.88,2015.08 c -1.82,0 -3.55,0.32 -5.2,0.97 -1.65,0.65 -3.38,1.75 -5.17,3.3 -1.79,1.56 -3.5,3.65 -5.13,6.28 -1.63,2.63 -3.09,5.73 -4.38,9.3 -1.29,3.56 -2.54,8.12 -3.73,13.67 l -2.51,11.56 c -0.1,0.52 -0.21,1.28 -0.33,2.26 -0.12,0.98 -0.18,1.88 -0.18,2.69 0,3.06 1.26,5.42 3.77,7.07 2.51,1.65 5.85,2.48 10.01,2.48 4.93,0 9.3,-2 13.1,-6 3.81,-3.99 6.76,-9.5 8.87,-16.51 2.1,-7.01 3.16,-13.98 3.16,-20.92 0,-3.11 -0.33,-5.82 -0.97,-8.15 -0.65,-2.32 -1.88,-4.23 -3.7,-5.74 -1.82,-1.51 -4.35,-2.26 -7.61,-2.26 z m 1.87,-5.67 c 4.64,0 8.73,0.95 12.27,2.84 3.54,1.89 6.22,4.63 8.04,8.21 1.82,3.59 2.73,8 2.73,13.21 0,8.14 -1.59,15.85 -4.77,23.15 -3.19,7.3 -7.61,13.04 -13.28,17.23 -5.67,4.18 -12.03,6.28 -19.06,6.28 -3.25,0 -6.34,-0.29 -9.26,-0.86 -2.92,-0.58 -5.84,-1.56 -8.76,-2.95 l -7.46,33.67 h -11.77 l 14.57,-64.96 c 1.72,-7.66 4.19,-14.07 7.39,-19.24 3.21,-5.17 7.27,-9.22 12.2,-12.16 4.93,-2.95 10.65,-4.42 17.16,-4.42 z"
       id="path152"
       inkscape:connector-curvature="0"
       style="fill-rule:evenodd" />
    <text
       font-size="100.775"
       x="2440.4299"
       y="2097.5901"
       id="text154"
       style="font-size:100.77500153px;font-family:Arial, Arial_MSFontService, sans-serif;fill:#000000;fill-opacity:0">𝜌</text>
    <path
       d="m 2664.37,1992.61 v 10.77 l -77.95,33.81 77.95,33.81 v 10.76 l -88.72,-39.55 v -10.05 z"
       id="path156"
       inkscape:connector-curvature="0"
       style="fill-rule:evenodd" />
    <text
       font-size="89.1475"
       x="2575.6499"
       y="2070.6201"
       id="text158"
       style="font-size:89.14749908px;font-family:Arial, Arial_MSFontService, sans-serif;fill:#000000;fill-opacity:0">&lt;</text>
    <path
       d="m 2756.4,1986.16 c -3.3,0 -6.06,0.98 -8.29,2.94 -2.22,1.96 -4.02,4.78 -5.38,8.47 -1.37,3.68 -2.34,8.17 -2.91,13.46 -0.57,5.28 -0.86,11.25 -0.86,17.9 0,15.6 1.45,27.05 4.34,34.35 2.9,7.3 7.38,10.95 13.46,10.95 5.79,0 10.08,-3.44 12.88,-10.3 2.8,-6.87 4.2,-17.51 4.2,-31.91 0,-11.01 -0.72,-19.92 -2.15,-26.74 -1.44,-6.82 -3.43,-11.71 -5.99,-14.67 -2.56,-2.97 -5.66,-4.45 -9.3,-4.45 z m 0.36,-6.11 c 10.48,0 18.28,4.05 23.4,12.13 5.12,8.09 7.68,20.32 7.68,36.68 0,16.94 -2.74,29.75 -8.22,38.44 -5.48,8.68 -13.48,13.03 -24.01,13.03 -10.33,0 -18.03,-4.07 -23.08,-12.21 -5.04,-8.13 -7.57,-20.48 -7.57,-37.03 0,-8.81 0.78,-16.42 2.33,-22.83 1.56,-6.41 3.74,-11.71 6.54,-15.9 2.8,-4.18 6.16,-7.28 10.08,-9.29 3.93,-2.01 8.21,-3.02 12.85,-3.02 z"
       id="path160"
       inkscape:connector-curvature="0"
       style="fill-rule:evenodd" />
    <text
       font-size="100.273"
       x="2724.96"
       y="2067.79"
       id="text162"
       style="font-size:100.27300262px;font-family:Arial, Arial_MSFontService, sans-serif;fill:#000000;fill-opacity:0">0</text>
    <text
       font-weight="400"
       font-size="110"
       transform="translate(1471.2,878)"
       id="text166"
       style="font-weight:400;font-size:110px;font-family:Arial, Arial_MSFontService, sans-serif">(a)<tspan
   font-size="110"
   x="0"
   y="1523"
   id="tspan164"
   style="font-size:110px">(b)</tspan>
</text>
  </g>
</svg>
